
<svg xmlns="http://www.w3.org/2000/svg" viewBox="0 0 1024 1024" width="1024" height="1024">
  <ellipse cx="512" cy="760" rx="230" ry="24" fill="#2B2620" opacity="0.12"/>
  
      <g transform="translate(512, 470)">
        <!-- Hero fruit -->
        <g transform="translate(35, -25) rotate(-6)">
          <path d="M -160,-180 C -30,-230 140,-180 185,-60 C 220,50 180,180 80,225 C -20,260 -150,210 -195,110 C -230,10 -210,-110 -160,-180 Z"
                fill="#C42B27" stroke="#F5CE4C" stroke-width="3.5"/>
          <!-- Blush wash -->
          <path d="M -110,-140 C 0,-180 120,-140 150,-40 C 170,40 130,120 50,150 C -40,110 -90,20 -110,-140 Z"
                fill="#F5CE4C" opacity="0.45"/>
          <!-- Highlight -->
          <path d="M -90,-110 C -40,-140 30,-140 70,-100 C 40,-80 -20,-75 -60,-65 Z" fill="#FFF7CC" opacity="0.55"/>
          <!-- Pedicel & Leaf -->
          <path d="M -15,-205 C -10,-240 -25,-265 -18,-280 C -10,-280 5,-260 2,-205 Z" fill="#543E26" stroke="#332414" stroke-width="2"/>
          <path d="M 0,-245 C 70,-285 170,-275 220,-225 C 175,-200 95,-205 10,-230 Z" fill="#4B7026" stroke="#253D0E" stroke-width="2.5"/>
          <path d="M 5,-240 Q 110,-245 210,-225" stroke="#7AA346" stroke-width="2" fill="none"/>
        </g>
        <!-- Cut section beside -->
        <g transform="translate(-140, 110) rotate(16)">
          <ellipse cx="0" cy="0" rx="130" ry="105" fill="#F5CE4C" stroke="#3D2110" stroke-width="3"/>
          <ellipse cx="-3" cy="-2" rx="115" ry="90" fill="#C42B27" stroke="#F5CE4C" stroke-width="2.5"/>
          <!-- Central seeds / star pattern -->
          <circle cx="-3" cy="-2" r="16" fill="#F5CE4C"/>
          <circle cx="-3" cy="-2" r="7" fill="#24140A"/>
          <path d="M -60,-15 Q -10,-35 45,-15" stroke="#FFF7CC" stroke-width="3.5" fill="none" opacity="0.6"/>
        </g>
      </g>
    
</svg>
