
<svg xmlns="http://www.w3.org/2000/svg" viewBox="0 0 1024 1024" width="1024" height="1024">
  <ellipse cx="512" cy="760" rx="230" ry="24" fill="#2B2620" opacity="0.12"/>
  
      <g transform="translate(512, 480)">
        <!-- Central stem -->
        <path d="M 0,260 Q -20,40 -5,-250" stroke="#3D5920" stroke-width="5" fill="none" stroke-linecap="round"/>
        <!-- Terminal top leaves -->
        <g transform="translate(-5, -250)">
          <path d="M 0,0 C -35,-40 -20,-100 0,-120 C 20,-100 35,-40 0,0 Z" fill="#3B8233" stroke="#1E330D" stroke-width="2.5"/>
          <path d="M 0,0 L 0,-115" stroke="#7FA84A" stroke-width="2"/>
        </g>
        <!-- Paired lateral leaves -->
        
            <g transform="translate(-10, -160)">
              <!-- Left leaf -->
              <g transform="rotate(-55) scale(1)">
                <path d="M 0,0 C -50,-35 -110,-20 -140,25 C -110,65 -50,45 0,0 Z" fill="#3B8233" stroke="#1E330D" stroke-width="2.5"/>
                <path d="M 0,0 Q -65,15 -135,23" stroke="#7FA84A" stroke-width="2" fill="none"/>
                <!-- Secondary veins -->
                <path d="M -40,7 Q -55,-10 -75,-12" stroke="#7FA84A" stroke-width="1.5" fill="none"/>
                <path d="M -75,13 Q -95,-2 -115,-3" stroke="#7FA84A" stroke-width="1.5" fill="none"/>
              </g>
              <!-- Right leaf -->
              <g transform="translate(20, 15) rotate(55) scale(1)">
                <path d="M 0,0 C 50,-35 110,-20 140,25 C 110,65 50,45 0,0 Z" fill="#3B8233" stroke="#1E330D" stroke-width="2.5"/>
                <path d="M 0,0 Q 65,15 135,23" stroke="#7FA84A" stroke-width="2" fill="none"/>
                <path d="M 40,7 Q 55,-10 75,-12" stroke="#7FA84A" stroke-width="1.5" fill="none"/>
                <path d="M 75,13 Q 95,-2 115,-3" stroke="#7FA84A" stroke-width="1.5" fill="none"/>
              </g>
            </g>
          
            <g transform="translate(-10, -70)">
              <!-- Left leaf -->
              <g transform="rotate(-55) scale(1.15)">
                <path d="M 0,0 C -50,-35 -110,-20 -140,25 C -110,65 -50,45 0,0 Z" fill="#3B8233" stroke="#1E330D" stroke-width="2.5"/>
                <path d="M 0,0 Q -65,15 -135,23" stroke="#7FA84A" stroke-width="2" fill="none"/>
                <!-- Secondary veins -->
                <path d="M -40,7 Q -55,-10 -75,-12" stroke="#7FA84A" stroke-width="1.5" fill="none"/>
                <path d="M -75,13 Q -95,-2 -115,-3" stroke="#7FA84A" stroke-width="1.5" fill="none"/>
              </g>
              <!-- Right leaf -->
              <g transform="translate(20, 15) rotate(55) scale(1.15)">
                <path d="M 0,0 C 50,-35 110,-20 140,25 C 110,65 50,45 0,0 Z" fill="#3B8233" stroke="#1E330D" stroke-width="2.5"/>
                <path d="M 0,0 Q 65,15 135,23" stroke="#7FA84A" stroke-width="2" fill="none"/>
                <path d="M 40,7 Q 55,-10 75,-12" stroke="#7FA84A" stroke-width="1.5" fill="none"/>
                <path d="M 75,13 Q 95,-2 115,-3" stroke="#7FA84A" stroke-width="1.5" fill="none"/>
              </g>
            </g>
          
            <g transform="translate(-10, 20)">
              <!-- Left leaf -->
              <g transform="rotate(-55) scale(1.3)">
                <path d="M 0,0 C -50,-35 -110,-20 -140,25 C -110,65 -50,45 0,0 Z" fill="#3B8233" stroke="#1E330D" stroke-width="2.5"/>
                <path d="M 0,0 Q -65,15 -135,23" stroke="#7FA84A" stroke-width="2" fill="none"/>
                <!-- Secondary veins -->
                <path d="M -40,7 Q -55,-10 -75,-12" stroke="#7FA84A" stroke-width="1.5" fill="none"/>
                <path d="M -75,13 Q -95,-2 -115,-3" stroke="#7FA84A" stroke-width="1.5" fill="none"/>
              </g>
              <!-- Right leaf -->
              <g transform="translate(20, 15) rotate(55) scale(1.3)">
                <path d="M 0,0 C 50,-35 110,-20 140,25 C 110,65 50,45 0,0 Z" fill="#3B8233" stroke="#1E330D" stroke-width="2.5"/>
                <path d="M 0,0 Q 65,15 135,23" stroke="#7FA84A" stroke-width="2" fill="none"/>
                <path d="M 40,7 Q 55,-10 75,-12" stroke="#7FA84A" stroke-width="1.5" fill="none"/>
                <path d="M 75,13 Q 95,-2 115,-3" stroke="#7FA84A" stroke-width="1.5" fill="none"/>
              </g>
            </g>
          
            <g transform="translate(-10, 110)">
              <!-- Left leaf -->
              <g transform="rotate(-55) scale(1.45)">
                <path d="M 0,0 C -50,-35 -110,-20 -140,25 C -110,65 -50,45 0,0 Z" fill="#3B8233" stroke="#1E330D" stroke-width="2.5"/>
                <path d="M 0,0 Q -65,15 -135,23" stroke="#7FA84A" stroke-width="2" fill="none"/>
                <!-- Secondary veins -->
                <path d="M -40,7 Q -55,-10 -75,-12" stroke="#7FA84A" stroke-width="1.5" fill="none"/>
                <path d="M -75,13 Q -95,-2 -115,-3" stroke="#7FA84A" stroke-width="1.5" fill="none"/>
              </g>
              <!-- Right leaf -->
              <g transform="translate(20, 15) rotate(55) scale(1.45)">
                <path d="M 0,0 C 50,-35 110,-20 140,25 C 110,65 50,45 0,0 Z" fill="#3B8233" stroke="#1E330D" stroke-width="2.5"/>
                <path d="M 0,0 Q 65,15 135,23" stroke="#7FA84A" stroke-width="2" fill="none"/>
                <path d="M 40,7 Q 55,-10 75,-12" stroke="#7FA84A" stroke-width="1.5" fill="none"/>
                <path d="M 75,13 Q 95,-2 115,-3" stroke="#7FA84A" stroke-width="1.5" fill="none"/>
              </g>
            </g>
          
      </g>
    
</svg>
